<mxfile host="app.diagrams.net" modified="2022-04-05T22:10:10.309Z" agent="5.0 (Macintosh)" etag="Fg5Co8JZHYYSRuqmMKLj" version="17.4.0" type="github">
  <diagram id="TMh0wKGHAGc0SFS9rOuZ" name="Page-1">
    <mxGraphModel dx="1193" dy="712" grid="1" gridSize="10" guides="1" tooltips="1" connect="1" arrows="1" fold="1" page="1" pageScale="1" pageWidth="827" pageHeight="1169" math="0" shadow="0">
      <root>
        <mxCell id="0" />
        <mxCell id="1" parent="0" />
        <mxCell id="MZD6LpZfuzByw2lmOiwf-3" style="edgeStyle=orthogonalEdgeStyle;rounded=0;orthogonalLoop=1;jettySize=auto;html=1;" edge="1" parent="1" source="MZD6LpZfuzByw2lmOiwf-1" target="MZD6LpZfuzByw2lmOiwf-2">
          <mxGeometry relative="1" as="geometry" />
        </mxCell>
        <mxCell id="MZD6LpZfuzByw2lmOiwf-1" value="Inicio" style="ellipse;whiteSpace=wrap;html=1;" vertex="1" parent="1">
          <mxGeometry x="220" y="10" width="90" height="60" as="geometry" />
        </mxCell>
        <mxCell id="MZD6LpZfuzByw2lmOiwf-5" value="" style="edgeStyle=orthogonalEdgeStyle;rounded=0;orthogonalLoop=1;jettySize=auto;html=1;entryX=0.5;entryY=0;entryDx=0;entryDy=0;" edge="1" parent="1" source="MZD6LpZfuzByw2lmOiwf-2" target="MZD6LpZfuzByw2lmOiwf-28">
          <mxGeometry relative="1" as="geometry" />
        </mxCell>
        <mxCell id="MZD6LpZfuzByw2lmOiwf-2" value="i=x.length-1" style="rounded=0;whiteSpace=wrap;html=1;" vertex="1" parent="1">
          <mxGeometry x="205" y="130" width="120" height="60" as="geometry" />
        </mxCell>
        <mxCell id="MZD6LpZfuzByw2lmOiwf-8" style="edgeStyle=orthogonalEdgeStyle;rounded=0;orthogonalLoop=1;jettySize=auto;html=1;exitX=0.5;exitY=1;exitDx=0;exitDy=0;fontFamily=Helvetica;fontSize=12;" edge="1" parent="1" source="MZD6LpZfuzByw2lmOiwf-4" target="MZD6LpZfuzByw2lmOiwf-7">
          <mxGeometry relative="1" as="geometry" />
        </mxCell>
        <mxCell id="MZD6LpZfuzByw2lmOiwf-21" style="edgeStyle=orthogonalEdgeStyle;rounded=0;orthogonalLoop=1;jettySize=auto;html=1;fontFamily=Helvetica;fontSize=12;" edge="1" parent="1" source="MZD6LpZfuzByw2lmOiwf-4" target="MZD6LpZfuzByw2lmOiwf-15">
          <mxGeometry relative="1" as="geometry" />
        </mxCell>
        <mxCell id="MZD6LpZfuzByw2lmOiwf-4" value="&lt;span style=&quot;font-size: 12px; color: rgb(0, 0, 0); background-color: transparent; font-weight: 400; font-style: normal; font-variant: normal; text-decoration: none; vertical-align: baseline;&quot; id=&quot;docs-internal-guid-4e8fe336-7fff-4975-c776-1bb8abe5fee9&quot;&gt;i &amp;gt; 0&lt;/span&gt;" style="rhombus;whiteSpace=wrap;html=1;fontFamily=Helvetica;fontSize=12;" vertex="1" parent="1">
          <mxGeometry x="202.34" y="321" width="125.32" height="99" as="geometry" />
        </mxCell>
        <mxCell id="MZD6LpZfuzByw2lmOiwf-11" style="edgeStyle=orthogonalEdgeStyle;rounded=0;orthogonalLoop=1;jettySize=auto;html=1;fontFamily=Helvetica;fontSize=12;" edge="1" parent="1" source="MZD6LpZfuzByw2lmOiwf-7" target="MZD6LpZfuzByw2lmOiwf-10">
          <mxGeometry relative="1" as="geometry" />
        </mxCell>
        <mxCell id="MZD6LpZfuzByw2lmOiwf-25" style="edgeStyle=orthogonalEdgeStyle;rounded=0;orthogonalLoop=1;jettySize=auto;html=1;fontFamily=Helvetica;fontSize=12;" edge="1" parent="1" source="MZD6LpZfuzByw2lmOiwf-7" target="MZD6LpZfuzByw2lmOiwf-24">
          <mxGeometry relative="1" as="geometry" />
        </mxCell>
        <mxCell id="MZD6LpZfuzByw2lmOiwf-7" value="&lt;div&gt;&lt;span style=&quot;font-size: 12px ; color: black&quot; lang=&quot;EN-US&quot;&gt;x[i] == y&lt;/span&gt;&lt;/div&gt;" style="rhombus;whiteSpace=wrap;html=1;fontFamily=Helvetica;fontSize=12;" vertex="1" parent="1">
          <mxGeometry x="202.34" y="485.5" width="125.32" height="99" as="geometry" />
        </mxCell>
        <mxCell id="MZD6LpZfuzByw2lmOiwf-9" value="+" style="text;html=1;strokeColor=none;fillColor=none;align=center;verticalAlign=middle;whiteSpace=wrap;rounded=0;fontFamily=Helvetica;fontSize=12;" vertex="1" parent="1">
          <mxGeometry x="250" y="412" width="60" height="30" as="geometry" />
        </mxCell>
        <mxCell id="MZD6LpZfuzByw2lmOiwf-19" style="edgeStyle=orthogonalEdgeStyle;rounded=0;orthogonalLoop=1;jettySize=auto;html=1;fontFamily=Helvetica;fontSize=12;" edge="1" parent="1" source="MZD6LpZfuzByw2lmOiwf-10" target="MZD6LpZfuzByw2lmOiwf-17">
          <mxGeometry relative="1" as="geometry" />
        </mxCell>
        <mxCell id="MZD6LpZfuzByw2lmOiwf-10" value="&lt;span style=&quot;font-size: 12px ; color: black&quot; lang=&quot;EN-US&quot;&gt;return i&lt;/span&gt;" style="rounded=1;whiteSpace=wrap;html=1;fontFamily=Helvetica;fontSize=12;verticalAlign=middle;" vertex="1" parent="1">
          <mxGeometry x="205" y="670" width="120" height="60" as="geometry" />
        </mxCell>
        <mxCell id="MZD6LpZfuzByw2lmOiwf-12" value="+" style="text;html=1;strokeColor=none;fillColor=none;align=center;verticalAlign=middle;whiteSpace=wrap;rounded=0;fontFamily=Helvetica;fontSize=12;" vertex="1" parent="1">
          <mxGeometry x="250" y="582" width="60" height="30" as="geometry" />
        </mxCell>
        <mxCell id="MZD6LpZfuzByw2lmOiwf-13" value="Fin" style="ellipse;whiteSpace=wrap;html=1;" vertex="1" parent="1">
          <mxGeometry x="216.25" y="880" width="97.5" height="65" as="geometry" />
        </mxCell>
        <mxCell id="MZD6LpZfuzByw2lmOiwf-23" style="edgeStyle=orthogonalEdgeStyle;rounded=0;orthogonalLoop=1;jettySize=auto;html=1;entryX=1;entryY=0.5;entryDx=0;entryDy=0;fontFamily=Helvetica;fontSize=12;" edge="1" parent="1" source="MZD6LpZfuzByw2lmOiwf-15" target="MZD6LpZfuzByw2lmOiwf-17">
          <mxGeometry relative="1" as="geometry">
            <Array as="points">
              <mxPoint x="450" y="795" />
            </Array>
          </mxGeometry>
        </mxCell>
        <mxCell id="MZD6LpZfuzByw2lmOiwf-15" value="return -1" style="rounded=1;whiteSpace=wrap;html=1;" vertex="1" parent="1">
          <mxGeometry x="400" y="340.5" width="120" height="60" as="geometry" />
        </mxCell>
        <mxCell id="MZD6LpZfuzByw2lmOiwf-37" style="edgeStyle=orthogonalEdgeStyle;rounded=0;orthogonalLoop=1;jettySize=auto;html=1;fontFamily=Helvetica;fontSize=12;fontColor=#FF3333;" edge="1" parent="1" source="MZD6LpZfuzByw2lmOiwf-17" target="MZD6LpZfuzByw2lmOiwf-13">
          <mxGeometry relative="1" as="geometry" />
        </mxCell>
        <mxCell id="MZD6LpZfuzByw2lmOiwf-17" value="" style="ellipse;whiteSpace=wrap;html=1;aspect=fixed;" vertex="1" parent="1">
          <mxGeometry x="250" y="780" width="30" height="30" as="geometry" />
        </mxCell>
        <mxCell id="MZD6LpZfuzByw2lmOiwf-22" value="-" style="text;html=1;strokeColor=none;fillColor=none;align=center;verticalAlign=middle;whiteSpace=wrap;rounded=0;fontFamily=Helvetica;fontSize=12;" vertex="1" parent="1">
          <mxGeometry x="301.5" y="343.5" width="60" height="30" as="geometry" />
        </mxCell>
        <mxCell id="MZD6LpZfuzByw2lmOiwf-26" style="edgeStyle=orthogonalEdgeStyle;rounded=0;orthogonalLoop=1;jettySize=auto;html=1;entryX=0;entryY=0.5;entryDx=0;entryDy=0;fontFamily=Helvetica;fontSize=12;" edge="1" parent="1" source="MZD6LpZfuzByw2lmOiwf-24" target="MZD6LpZfuzByw2lmOiwf-28">
          <mxGeometry relative="1" as="geometry">
            <Array as="points">
              <mxPoint x="90" y="255" />
            </Array>
          </mxGeometry>
        </mxCell>
        <mxCell id="MZD6LpZfuzByw2lmOiwf-24" value="&lt;span style=&quot;font-size: 12px ; color: black&quot; lang=&quot;EN-US&quot;&gt;i=i-1&lt;/span&gt;" style="rounded=0;whiteSpace=wrap;html=1;fontFamily=Helvetica;fontSize=12;" vertex="1" parent="1">
          <mxGeometry x="10" y="505" width="120" height="60" as="geometry" />
        </mxCell>
        <mxCell id="MZD6LpZfuzByw2lmOiwf-27" value="-" style="text;html=1;strokeColor=none;fillColor=none;align=center;verticalAlign=middle;whiteSpace=wrap;rounded=0;fontFamily=Helvetica;fontSize=12;" vertex="1" parent="1">
          <mxGeometry x="168" y="508" width="60" height="30" as="geometry" />
        </mxCell>
        <mxCell id="MZD6LpZfuzByw2lmOiwf-30" style="edgeStyle=orthogonalEdgeStyle;rounded=0;orthogonalLoop=1;jettySize=auto;html=1;fontFamily=Helvetica;fontSize=12;" edge="1" parent="1" source="MZD6LpZfuzByw2lmOiwf-28" target="MZD6LpZfuzByw2lmOiwf-4">
          <mxGeometry relative="1" as="geometry" />
        </mxCell>
        <mxCell id="MZD6LpZfuzByw2lmOiwf-28" value="" style="ellipse;whiteSpace=wrap;html=1;aspect=fixed;" vertex="1" parent="1">
          <mxGeometry x="250" y="240" width="30" height="30" as="geometry" />
        </mxCell>
        <mxCell id="MZD6LpZfuzByw2lmOiwf-31" value="a" style="text;html=1;strokeColor=none;fillColor=none;align=center;verticalAlign=middle;whiteSpace=wrap;rounded=0;fontFamily=Helvetica;fontSize=12;fontColor=#FF3333;labelBackgroundColor=default;" vertex="1" parent="1">
          <mxGeometry x="250" y="80" width="60" height="30" as="geometry" />
        </mxCell>
        <mxCell id="MZD6LpZfuzByw2lmOiwf-32" value="b" style="text;html=1;strokeColor=none;fillColor=none;align=center;verticalAlign=middle;whiteSpace=wrap;rounded=0;fontFamily=Helvetica;fontSize=12;fontColor=#FF3333;labelBackgroundColor=default;" vertex="1" parent="1">
          <mxGeometry x="250" y="200" width="60" height="30" as="geometry" />
        </mxCell>
        <mxCell id="MZD6LpZfuzByw2lmOiwf-33" value="c" style="text;html=1;strokeColor=none;fillColor=none;align=center;verticalAlign=middle;whiteSpace=wrap;rounded=0;fontFamily=Helvetica;fontSize=12;fontColor=#FF3333;labelBackgroundColor=default;" vertex="1" parent="1">
          <mxGeometry x="250" y="280" width="60" height="30" as="geometry" />
        </mxCell>
        <mxCell id="MZD6LpZfuzByw2lmOiwf-34" value="d" style="text;html=1;strokeColor=none;fillColor=none;align=center;verticalAlign=middle;whiteSpace=wrap;rounded=0;fontFamily=Helvetica;fontSize=12;fontColor=#FF3333;labelBackgroundColor=default;" vertex="1" parent="1">
          <mxGeometry x="250" y="440" width="60" height="30" as="geometry" />
        </mxCell>
        <mxCell id="MZD6LpZfuzByw2lmOiwf-35" value="e" style="text;html=1;strokeColor=none;fillColor=none;align=center;verticalAlign=middle;whiteSpace=wrap;rounded=0;fontFamily=Helvetica;fontSize=12;fontColor=#FF3333;labelBackgroundColor=default;" vertex="1" parent="1">
          <mxGeometry x="250" y="620" width="60" height="30" as="geometry" />
        </mxCell>
        <mxCell id="MZD6LpZfuzByw2lmOiwf-36" value="f" style="text;html=1;strokeColor=none;fillColor=none;align=center;verticalAlign=middle;whiteSpace=wrap;rounded=0;fontFamily=Helvetica;fontSize=12;fontColor=#FF3333;labelBackgroundColor=default;" vertex="1" parent="1">
          <mxGeometry x="250" y="740" width="60" height="30" as="geometry" />
        </mxCell>
        <mxCell id="MZD6LpZfuzByw2lmOiwf-38" value="g" style="text;html=1;strokeColor=none;fillColor=none;align=center;verticalAlign=middle;whiteSpace=wrap;rounded=0;fontFamily=Helvetica;fontSize=12;fontColor=#FF3333;labelBackgroundColor=default;" vertex="1" parent="1">
          <mxGeometry x="250" y="820" width="60" height="30" as="geometry" />
        </mxCell>
        <mxCell id="MZD6LpZfuzByw2lmOiwf-39" value="h" style="text;html=1;strokeColor=none;fillColor=none;align=center;verticalAlign=middle;whiteSpace=wrap;rounded=0;fontFamily=Helvetica;fontSize=12;fontColor=#FF3333;labelBackgroundColor=default;" vertex="1" parent="1">
          <mxGeometry x="130" y="505" width="60" height="30" as="geometry" />
        </mxCell>
        <mxCell id="MZD6LpZfuzByw2lmOiwf-40" value="i" style="text;html=1;strokeColor=none;fillColor=none;align=center;verticalAlign=middle;whiteSpace=wrap;rounded=0;fontFamily=Helvetica;fontSize=12;fontColor=#FF3333;labelBackgroundColor=default;" vertex="1" parent="1">
          <mxGeometry x="80" y="440" width="60" height="30" as="geometry" />
        </mxCell>
        <mxCell id="MZD6LpZfuzByw2lmOiwf-41" value="i" style="text;html=1;strokeColor=none;fillColor=none;align=center;verticalAlign=middle;whiteSpace=wrap;rounded=0;fontFamily=Helvetica;fontSize=12;fontColor=#FF3333;labelBackgroundColor=default;" vertex="1" parent="1">
          <mxGeometry x="340" y="340.5" width="60" height="30" as="geometry" />
        </mxCell>
        <mxCell id="MZD6LpZfuzByw2lmOiwf-42" value="k" style="text;html=1;strokeColor=none;fillColor=none;align=center;verticalAlign=middle;whiteSpace=wrap;rounded=0;fontFamily=Helvetica;fontSize=12;fontColor=#FF3333;labelBackgroundColor=default;" vertex="1" parent="1">
          <mxGeometry x="440" y="430" width="60" height="30" as="geometry" />
        </mxCell>
      </root>
    </mxGraphModel>
  </diagram>
</mxfile>
